# xmcd
#
# Track frame offsets: 
#        150
#        22092
#        33857
#        55842
#        67547
#        81855
#        96065
#        115672
#        134945
#        145862
#        159270
#        172760
#
# Disc length: 2500 seconds
#
# Revision: 7
# Processed by: cddbd v1.5.2PL0 Copyright (c) Steve Scherf et al.
# Submitted via: ExactAudioCopy v0.99pb5
#
DISCID=9109c20c
DTITLE=Rodgers and Hammerstein - Oklahoma!
DYEAR=1955
DGENRE=Soundtrack
TTITLE0=Overture
TTITLE1=Oh, What A Beautiful Mornin'
TTITLE2=The Surrey With The Fringe On Top
TTITLE3=Kansas City
TTITLE4=I Cain't Say No
TTITLE5=Many A New Day
TTITLE6=People Will Say We're In Love
TTITLE7=Pore Jud Is Daid
TTITLE8=Out Of My Dreams
TTITLE9=The Farmer And The Cowman
TTITLE10=All Er Nothin'
TTITLE11=Oklahoma
EXTD=YEAR: 1955
EXTT0=
EXTT1=
EXTT2=
EXTT3=
EXTT4=
EXTT5=
EXTT6=
EXTT7=
EXTT8=
EXTT9=
EXTT10=
EXTT11=
PLAYORDER=
